<svg id="heart" xmlns="http://www.w3.org/2000/svg" viewBox="0 0 512 512">
  <defs>
    <style>
      .cls-1 {
        fill: #c11e1e;
      }

      .cls-2 {
        fill: #fff;
        opacity: 0.51;
      }
    </style>
  </defs>
  <title>Plan de travail 1</title>
  <path id="fond" class="cls-1" d="M259.482,481.024c26.25-60.28,157.199-113.719,195.209-165.379,17.12-23.27,29.18-51.58,29.18-83.44,0-70.9-54.44-128.379-121.599-128.379-43.25,0-81.23,23.85-102.789,59.76-21.56-35.91-59.54-59.76-102.789-59.76-67.16,0-121.599,57.48-121.599,128.379,0,31.86,12.06,60.17,29.18,83.44C102.283,367.305,233.232,420.745,259.482,481.024Z"/>
  <path id="contour" d="M362.272,93.827c-40.471,0-77.922,19.162-102.789,51.936-24.868-32.773-62.319-51.936-102.789-51.936-72.564,0-131.599,62.077-131.599,138.379,0,30.787,10.763,61.689,31.125,89.366,17.763,24.141,52.744,47.397,89.777,72.019,44.635,29.675,90.788,60.359,104.317,91.426a9.999,9.999,0,0,0,18.336,0c13.529-31.067,59.683-61.752,104.317-91.426,37.035-24.621,72.016-47.877,89.778-72.02,20.362-27.677,31.125-58.58,31.125-89.365C493.871,155.903,434.835,93.827,362.272,93.827Zm84.364,215.891c-15.668,21.296-49.22,43.602-84.741,67.218-40.039,26.618-81.237,54.007-102.413,84.057-21.177-30.051-62.375-57.439-102.413-84.059-35.521-23.615-69.073-45.921-84.74-67.216-18.072-24.564-27.235-50.644-27.235-77.515,0-65.274,50.063-118.379,111.599-118.379,38.353,0,73.574,20.526,94.216,54.908a9.99876,9.99876,0,0,0,17.146,0c20.643-34.382,55.864-54.908,94.216-54.908,61.537,0,111.599,53.105,111.599,118.379C473.871,259.076,464.708,285.155,446.636,309.718Z"/>
  <path id="mirror" class="cls-2" d="M89.03638,166.26731a18.66616,18.66616,0,0,0-1.48018,1.26839,109.62331,109.62331,0,0,0-21.57057,33.92821,84.91024,84.91024,0,0,0-6.24319,36.58777,78.20218,78.20218,0,0,0,4.29984,21.34367,90.81426,90.81426,0,0,0,11.451,22.03738c.14912.213.3212.45872.51294.71512l.00573.00819a126.23626,126.23626,0,0,0,20.70189,22.7136,10.00122,10.00122,0,0,0,13.00482-15.19775,106.75322,106.75322,0,0,1-17.44657-19.14548l-.01664-.02376-.37856-.54064c-7.486-10.726-11.46487-21.55158-12.17512-33.07889-.96975-16.08221,5.125-30.2869,10.4045-39.37946a94.00406,94.00406,0,0,1,8.2185-11.9562c.90158-1.11838,1.80365-2.16631,2.667-3.11264.28611-.32363.8314-.88734.8314-.88734a10.00012,10.00012,0,0,0-12.7868-15.28017Z"/>
</svg>
