<svg xmlns="http://www.w3.org/2000/svg" xmlns:xlink="http://www.w3.org/1999/xlink" viewBox="-1194 4511.45 332.906 231.062">
  <defs>
    <style>
      .cls-1 {
        fill: #fff;
      }

      .cls-2 {
        filter: url(#Tracé_22);
      }

      .cls-3 {
        filter: url(#Tracé_21);
      }

      .cls-4 {
        filter: url(#Tracé_20);
      }

      .cls-5 {
        filter: url(#Tracé_19);
      }

      .cls-6 {
        filter: url(#Tracé_18);
      }

      .cls-7 {
        filter: url(#Tracé_17);
      }

      .cls-8 {
        filter: url(#Tracé_16);
      }

      .cls-9 {
        filter: url(#Tracé_15);
      }
    </style>
    <filter id="Tracé_15" x="-1194" y="4511.45" width="332.906" height="231.062" filterUnits="userSpaceOnUse">
      <feOffset dy="3" input="SourceAlpha"/>
      <feGaussianBlur stdDeviation="3" result="blur"/>
      <feFlood flood-opacity="0.161"/>
      <feComposite operator="in" in2="blur"/>
      <feComposite in="SourceGraphic"/>
    </filter>
    <filter id="Tracé_16" x="-1163.273" y="4616.532" width="78.667" height="78.357" filterUnits="userSpaceOnUse">
      <feOffset dy="3" input="SourceAlpha"/>
      <feGaussianBlur stdDeviation="3" result="blur-2"/>
      <feFlood flood-opacity="0.161"/>
      <feComposite operator="in" in2="blur-2"/>
      <feComposite in="SourceGraphic"/>
    </filter>
    <filter id="Tracé_17" x="-948.26" y="4612.625" width="37.547" height="38.87" filterUnits="userSpaceOnUse">
      <feOffset dy="3" input="SourceAlpha"/>
      <feGaussianBlur stdDeviation="3" result="blur-3"/>
      <feFlood flood-opacity="0.161"/>
      <feComposite operator="in" in2="blur-3"/>
      <feComposite in="SourceGraphic"/>
    </filter>
    <filter id="Tracé_18" x="-971.851" y="4642.179" width="37.548" height="38.867" filterUnits="userSpaceOnUse">
      <feOffset dy="3" input="SourceAlpha"/>
      <feGaussianBlur stdDeviation="3" result="blur-4"/>
      <feFlood flood-opacity="0.161"/>
      <feComposite operator="in" in2="blur-4"/>
      <feComposite in="SourceGraphic"/>
    </filter>
    <filter id="Tracé_19" x="-928.038" y="4639.364" width="37.547" height="38.868" filterUnits="userSpaceOnUse">
      <feOffset dy="3" input="SourceAlpha"/>
      <feGaussianBlur stdDeviation="3" result="blur-5"/>
      <feFlood flood-opacity="0.161"/>
      <feComposite operator="in" in2="blur-5"/>
      <feComposite in="SourceGraphic"/>
    </filter>
    <filter id="Tracé_20" x="-948.934" y="4662.585" width="37.547" height="38.867" filterUnits="userSpaceOnUse">
      <feOffset dy="3" input="SourceAlpha"/>
      <feGaussianBlur stdDeviation="3" result="blur-6"/>
      <feFlood flood-opacity="0.161"/>
      <feComposite operator="in" in2="blur-6"/>
      <feComposite in="SourceGraphic"/>
    </filter>
    <filter id="Tracé_21" x="-1073.624" y="4623.183" width="53.051" height="38.868" filterUnits="userSpaceOnUse">
      <feOffset dy="3" input="SourceAlpha"/>
      <feGaussianBlur stdDeviation="3" result="blur-7"/>
      <feFlood flood-opacity="0.161"/>
      <feComposite operator="in" in2="blur-7"/>
      <feComposite in="SourceGraphic"/>
    </filter>
    <filter id="Tracé_22" x="-1029.143" y="4623.183" width="54.4" height="38.868" filterUnits="userSpaceOnUse">
      <feOffset dy="3" input="SourceAlpha"/>
      <feGaussianBlur stdDeviation="3" result="blur-8"/>
      <feFlood flood-opacity="0.161"/>
      <feComposite operator="in" in2="blur-8"/>
      <feComposite in="SourceGraphic"/>
    </filter>
  </defs>
  <g id="icone_manette" transform="translate(-1185 4428.935)">
    <g id="Groupe_2" data-name="Groupe 2" transform="translate(0 88.515)">
      <g class="cls-9" transform="matrix(1, 0, 0, 1, 1185, -4517.45)">
        <path id="Tracé_15-2" data-name="Tracé 15" class="cls-1" d="M258.159,154.671a6.385,6.385,0,0,0-2.05.259,823.918,823.918,0,0,0-85.469-4.153c8.477-11.749,22.268-13.308,36.038-18.321,15.717-5.718,22.335-18.833,20.552-35.822-1.129-10.768-17.415-10.884-16.274,0,1.959,18.649-9.663,19.877-24.14,24.16-15.126,4.475-27.758,12.969-34.148,28.466a9.815,9.815,0,0,0-.5,1.656c-31.1.444-62.166,2-92.813,3.754a7.1,7.1,0,0,0-.928.15,6.651,6.651,0,0,0-1.678-.15C7.1,156.768-11.2,218.027,6.736,261.836c8.257,20.171,26.065,36.4,47.21,39.2,32.112,4.257,57.6-17.171,71.856-45.4,21.165,1.357,42.342.627,63.533.468,14.3,28,39.686,49.167,71.624,44.93,21.147-2.8,38.953-19.029,47.211-39.2C326.108,218.027,307.81,156.768,258.159,154.671Zm37.9,102.224c-7.2,15.154-20.094,29.306-37.2,30.806-27.847,2.442-47.75-16.381-59.606-41.184a6.208,6.208,0,0,0-2.168-2.575,5.952,5.952,0,0,0-4.084-1.48c-23.7.086-47.389,1.138-71.058-.68A5.434,5.434,0,0,0,115.963,246c-.1.173-.215.319-.3.511C103.8,271.319,83.9,290.143,56.049,287.7c-17.107-1.5-30-15.648-37.2-30.806-16.267-34.239-1.264-86.957,37.9-88.613a6.76,6.76,0,0,0,.9-.133,6.564,6.564,0,0,0,1.7.133c68.253-3.907,138.609-6.915,206.657,1.362a6.286,6.286,0,0,0,1.764-.04C299.673,177.142,310.915,225.622,296.058,256.894Z" transform="translate(-1185 4428.93)"/>
      </g>
      <g class="cls-8" transform="matrix(1, 0, 0, 1, 1185, -4517.45)">
        <path id="Tracé_16-2" data-name="Tracé 16" class="cls-1" d="M99.982,267.942H88.407v-8.561c0-13.4-19.991-13.4-19.991,0v8.561H58.864a9.349,9.349,0,0,0-7.358,3.381,11.091,11.091,0,0,0-2.415,7.054c0,5.187,3.355,10.436,9.774,10.436h9.553v10.674a10,10,0,1,0,19.991,0V288.813H99.983c6.417,0,9.774-5.249,9.774-10.436S106.4,267.942,99.982,267.942Z" transform="translate(-1203.36 4373.2)"/>
      </g>
      <g class="cls-7" transform="matrix(1, 0, 0, 1, 1185, -4517.45)">
        <path id="Tracé_17-2" data-name="Tracé 17" class="cls-1" d="M402.371,243.354a9.345,9.345,0,0,0-7.358,3.38,11.065,11.065,0,0,0-2.415,7.054c0,5.186,3.353,10.436,9.773,10.436a9.347,9.347,0,0,0,7.358-3.382,11.071,11.071,0,0,0,2.415-7.054C412.145,248.6,408.789,243.354,402.371,243.354Z" transform="translate(-1331.86 4375.27)"/>
      </g>
      <g class="cls-6" transform="matrix(1, 0, 0, 1, 1185, -4517.45)">
        <path id="Tracé_18-2" data-name="Tracé 18" class="cls-1" d="M364.682,288.582a9.334,9.334,0,0,0-7.355,3.381,11.063,11.063,0,0,0-2.419,7.051c0,5.186,3.357,10.435,9.774,10.435a9.328,9.328,0,0,0,7.355-3.384,11.057,11.057,0,0,0,2.419-7.051C374.46,293.831,371.1,288.582,364.682,288.582Z" transform="translate(-1317.76 4359.6)"/>
      </g>
      <g class="cls-5" transform="matrix(1, 0, 0, 1, 1185, -4517.45)">
        <path id="Tracé_19-2" data-name="Tracé 19" class="cls-1" d="M434.678,284.275a9.337,9.337,0,0,0-7.355,3.382,11.064,11.064,0,0,0-2.419,7.05c0,5.187,3.356,10.436,9.774,10.436a9.329,9.329,0,0,0,7.355-3.385,11.058,11.058,0,0,0,2.419-7.051C444.451,289.525,441.1,284.275,434.678,284.275Z" transform="translate(-1343.94 4361.09)"/>
      </g>
      <g class="cls-4" transform="matrix(1, 0, 0, 1, 1185, -4517.45)">
        <path id="Tracé_20-2" data-name="Tracé 20" class="cls-1" d="M401.295,319.812a9.336,9.336,0,0,0-7.355,3.381,11.066,11.066,0,0,0-2.419,7.051c0,5.186,3.353,10.435,9.774,10.435a9.328,9.328,0,0,0,7.355-3.384,11.059,11.059,0,0,0,2.419-7.051C411.068,325.061,407.712,319.812,401.295,319.812Z" transform="translate(-1331.45 4348.77)"/>
      </g>
      <g class="cls-3" transform="matrix(1, 0, 0, 1, 1185, -4517.45)">
        <path id="Tracé_21-2" data-name="Tracé 21" class="cls-1" d="M217.591,259.51h-15.5c-6.415,0-9.774,5.25-9.774,10.433s3.356,10.435,9.774,10.435h15.5c6.415,0,9.774-5.249,9.774-10.435S224.005,259.51,217.591,259.51Z" transform="translate(-1256.94 4369.67)"/>
      </g>
      <g class="cls-2" transform="matrix(1, 0, 0, 1, 1185, -4517.45)">
        <path id="Tracé_22-2" data-name="Tracé 22" class="cls-1" d="M290,259.51H273.152c-6.418,0-9.774,5.25-9.774,10.433s3.356,10.435,9.774,10.435H290c6.418,0,9.774-5.249,9.774-10.435S296.422,259.51,290,259.51Z" transform="translate(-1283.52 4369.67)"/>
      </g>
    </g>
  </g>
</svg>
