<svg id="Calque_1" data-name="Calque 1" xmlns="http://www.w3.org/2000/svg" viewBox="0 0 102 95"><defs><style>.cls-1{fill:#fff;}</style></defs><title>montreql logo</title><path class="cls-1" d="M60.26,85.68a10.41,10.41,0,0,1-3.13-7.39V54.14a4.76,4.76,0,0,1,4.62-4.62H86a10.39,10.39,0,1,1-7.44,17.63l-1.21-1.21a6.42,6.42,0,0,0,.39-2.22h0a6.35,6.35,0,0,0-6.35-6.29A6,6,0,0,0,67,59.19a6.62,6.62,0,0,0-1.92,4.55A6.71,6.71,0,0,0,67,68.28,6.09,6.09,0,0,0,71.44,70a6.54,6.54,0,0,0,2.15-.41l1.25,1.21A10.56,10.56,0,0,1,78,78.31h0a10.42,10.42,0,0,1-17.78,7.36M15.86,67.39A10.56,10.56,0,0,1,12.74,60,10.48,10.48,0,0,1,23.17,49.52H47.33A4.78,4.78,0,0,1,52,54.1V78.34a10.55,10.55,0,0,1-3.12,7.44,10,10,0,0,1-7.28,3A10.38,10.38,0,0,1,31.18,78.45v0a10.41,10.41,0,0,1,3.14-7.52l1.21-1.22a6.06,6.06,0,0,0,2.2.41A6.35,6.35,0,0,0,44,63.74a6.08,6.08,0,0,0-1.76-4.36,6.34,6.34,0,0,0-9.08,0,6,6,0,0,0-1.78,4.39h0a6.2,6.2,0,0,0,.43,2.15l-1.23,1.25a10.47,10.47,0,0,1-7.46,3.19A10.25,10.25,0,0,1,15.86,67.39ZM57.13,15.54a10.48,10.48,0,0,1,3-7.43,10.09,10.09,0,0,1,7.29-3,10.55,10.55,0,0,1,7.41,3.07,10.19,10.19,0,0,1,3,7.26v0A10.35,10.35,0,0,1,74.75,23s-.91.91-1.21,1.21A6.3,6.3,0,0,0,65,30.15a6,6,0,0,0,1.77,4.36,6.56,6.56,0,0,0,4.54,1.91h0a6.67,6.67,0,0,0,4.53-1.92,6.07,6.07,0,0,0,1.76-4.4h0a6.67,6.67,0,0,0-.41-2.16l1.22-1.24a10.39,10.39,0,1,1,7.44,17.65H61.74a4.71,4.71,0,0,1-4.61-4.57V15.54ZM34.38,23h0a10.43,10.43,0,0,1-3.18-7.46v0a10.4,10.4,0,1,1,20.8,0V39.72a4.7,4.7,0,0,1-4.52,4.64H23.22a10.55,10.55,0,0,1-7.42-3.08,10.1,10.1,0,0,1-3-7.3,10.54,10.54,0,0,1,3.07-7.41,10.22,10.22,0,0,1,7.25-3,10.42,10.42,0,0,1,7.54,3.13s.92.91,1.22,1.22a5.79,5.79,0,0,0-.41,2.21,6.34,6.34,0,0,0,6.35,6.29,6,6,0,0,0,4.37-1.76,6.36,6.36,0,0,0,0-9.08,6.08,6.08,0,0,0-4.41-1.77,6.35,6.35,0,0,0-2.15.42ZM54.61,7.41a16,16,0,0,0-13-7.27A15.31,15.31,0,0,0,26.26,15.72a17,17,0,0,0,.51,3.47,19.21,19.21,0,0,0-3.5-.45A15.29,15.29,0,0,0,7.69,34a16,16,0,0,0,7.35,13,15.2,15.2,0,0,0,8.27,28.19,16.87,16.87,0,0,0,3.44-.49,16.47,16.47,0,0,0-.48,3.44A15.31,15.31,0,0,0,41.64,93.78a15.53,15.53,0,0,0,12.85-7.13,16.29,16.29,0,0,0,13,7.13A15.28,15.28,0,0,0,82.77,78.2a18.65,18.65,0,0,0-.44-3.44,18.26,18.26,0,0,0,3.47.49,15.49,15.49,0,0,0,15.58-15.37A15.8,15.8,0,0,0,94.26,47,15.79,15.79,0,0,0,101.38,34a15.5,15.5,0,0,0-15.65-15.3,16.91,16.91,0,0,0-3.41.5,19.06,19.06,0,0,0,.45-3.52A15.27,15.27,0,0,0,67.47.14,15.78,15.78,0,0,0,54.61,7.41Z"/></svg>