<svg xmlns="http://www.w3.org/2000/svg" xmlns:xlink="http://www.w3.org/1999/xlink" viewBox="0 0 899 511">
  <defs>
    <style>
      .cls-1 {
        fill: url(#linear-gradient);
      }

      .cls-2 {
        fill: #fff;
      }
    </style>
    <linearGradient id="linear-gradient" x1="0.983" y1="0.975" x2="0.237" y2="0.438" gradientUnits="objectBoundingBox">
      <stop offset="0" stop-color="#41295a"/>
      <stop offset="1" stop-color="#2f0743"/>
    </linearGradient>
  </defs>
  <g id="Groupe_64" data-name="Groupe 64" transform="translate(-200 -2416)">
    <rect id="Rectangle_38" data-name="Rectangle 38" class="cls-1" width="899" height="511" transform="translate(200 2416)"/>
    <path id="montreql_logo" data-name="montreql logo" class="cls-2" d="M147.966,228.393a27.777,27.777,0,0,1-8.352-19.719V144.232A12.7,12.7,0,0,1,151.942,131.9H216.65A27.724,27.724,0,1,1,196.8,178.948l-3.229-3.229a17.132,17.132,0,0,0,1.041-5.924h0a16.944,16.944,0,0,0-16.944-16.784,16.01,16.01,0,0,0-11.714,4.7,17.665,17.665,0,0,0-5.123,12.141,17.9,17.9,0,0,0,5.123,12.114,16.25,16.25,0,0,0,11.848,4.59,17.45,17.45,0,0,0,5.737-1.094l3.336,3.229a28.178,28.178,0,0,1,8.432,20.039h0a27.8,27.8,0,0,1-47.444,19.639M29.491,179.588A27.831,27.831,0,0,1,49,131.9h64.468a12.755,12.755,0,0,1,12.461,12.221v64.681A28.151,28.151,0,0,1,117.6,228.66a26.683,26.683,0,0,1-19.426,8.005A27.7,27.7,0,0,1,70.37,209.1h0a27.778,27.778,0,0,1,8.379-20.066l3.229-3.255a16.171,16.171,0,0,0,5.87,1.094,16.944,16.944,0,0,0,16.731-17.024,16.224,16.224,0,0,0-4.7-11.634,16.917,16.917,0,0,0-24.229,0,16.01,16.01,0,0,0-4.75,11.714h0a16.544,16.544,0,0,0,1.147,5.737L68.769,179a27.938,27.938,0,0,1-19.906,8.512A27.351,27.351,0,0,1,29.491,179.588ZM139.614,41.233a27.965,27.965,0,0,1,8.005-19.826A26.924,26.924,0,0,1,167.072,13.4a28.152,28.152,0,0,1,19.773,8.192,27.191,27.191,0,0,1,8.005,19.372h0a27.618,27.618,0,0,1-8.219,20.173L183.4,64.368a16.811,16.811,0,0,0-22.788,15.85,16.01,16.01,0,0,0,4.723,11.634,17.5,17.5,0,0,0,12.114,5.1h0a17.8,17.8,0,0,0,12.088-5.123,16.2,16.2,0,0,0,4.7-11.741h0a17.8,17.8,0,0,0-1.094-5.764l3.255-3.309a27.724,27.724,0,1,1,19.853,47.1H151.916a12.568,12.568,0,0,1-12.3-12.194ZM78.909,61.139h0a27.831,27.831,0,0,1-8.485-19.906h0a27.751,27.751,0,0,1,55.5,0v64.521a12.541,12.541,0,0,1-12.061,12.381H49.13a28.151,28.151,0,0,1-19.8-8.219,26.951,26.951,0,0,1-8.005-19.479,28.125,28.125,0,0,1,8.192-19.773A27.271,27.271,0,0,1,48.863,62.66a27.8,27.8,0,0,1,20.12,8.352s2.455,2.428,3.255,3.255a15.45,15.45,0,0,0-1.094,5.9A16.917,16.917,0,0,0,88.088,96.949a16.01,16.01,0,0,0,11.661-4.7,16.971,16.971,0,0,0,0-24.229A16.224,16.224,0,0,0,87.981,63.3a16.945,16.945,0,0,0-5.737,1.121Zm53.981-41.6A42.694,42.694,0,0,0,98.2.14a40.853,40.853,0,0,0-40.96,41.573A45.363,45.363,0,0,0,58.6,50.973a51.259,51.259,0,0,0-9.339-1.2A40.8,40.8,0,0,0,7.69,90.491,42.694,42.694,0,0,0,27.3,125.18,40.559,40.559,0,0,0,49.37,200.4a45.014,45.014,0,0,0,9.179-1.307,43.948,43.948,0,0,0-1.281,9.179,40.853,40.853,0,0,0,41.013,41.733,41.44,41.44,0,0,0,34.289-19.026,43.468,43.468,0,0,0,34.689,19.026,40.773,40.773,0,0,0,40.773-41.573,49.769,49.769,0,0,0-1.174-9.179,48.722,48.722,0,0,0,9.259,1.308,41.333,41.333,0,0,0,41.573-41.013,42.16,42.16,0,0,0-19-34.369,42.134,42.134,0,0,0,19-34.689,41.36,41.36,0,0,0-41.76-40.826,45.121,45.121,0,0,0-9.1,1.334,50.854,50.854,0,0,0,1.2-9.393A40.746,40.746,0,0,0,167.205.14a42.107,42.107,0,0,0-34.315,19.4Z" transform="translate(516.5 2546.199)"/>
  </g>
</svg>
