<?xml version="1.0" encoding="utf-8"?>
<!-- Generator: Adobe Illustrator 22.1.0, SVG Export Plug-In . SVG Version: 6.00 Build 0)  -->
<svg version="1.1" id="Calque_1" xmlns="http://www.w3.org/2000/svg" xmlns:xlink="http://www.w3.org/1999/xlink" x="0px" y="0px"
	 viewBox="0 0 1195 445" style="enable-background:new 0 0 1195 445;" xml:space="preserve">
<style type="text/css">
	.st0{enable-background:new    ;}
	.st1{fill:#242424;}
</style>
<title>leo_type</title>
<g class="st0">
	<path class="st1" d="M360,330v110H0V90h130v240H360z"/>
	<path class="st1" d="M654.5,327.5H772C757,407,692.5,445,569,445c-117.5,0-199-44-199-155s81.5-155,204-155c123.5,0,203,44,203,175
		H492.5c10,32,43.5,40,76.5,40C612.5,350,630,347,654.5,327.5z M670.5,70L476,110V40L670.5,0V70z M498,250h151
		c-13.5-27-43.5-30-75.5-30S511.5,223,498,250z"/>
	<path class="st1" d="M787,290c0-111,76.5-155,204-155s204,44,204,155s-76.5,155-204,155S787,401,787,290z M1075,290
		c0-44-30.5-55-84-55s-84,11-84,55s30.5,55,84,55S1075,334,1075,290z"/>
</g>
</svg>
