<svg xmlns="http://www.w3.org/2000/svg" viewBox="12263.906 1077.907 30.952 22.226">
  <defs>
    <style>
      .cls-1 {
        fill: #fff;
      }
    </style>
  </defs>
  <g id="mail" transform="translate(12263.906 1010.545)">
    <g id="Groupe_52" data-name="Groupe 52" transform="translate(0 67.362)">
      <g id="Groupe_50" data-name="Groupe 50" transform="translate(0 0)">
        <path id="Tracé_42" data-name="Tracé 42" class="cls-1" d="M27.9,89.588H3.116A3.1,3.1,0,0,1,0,86.472V70.478a3.1,3.1,0,0,1,3.116-3.116H27.834a3.1,3.1,0,0,1,3.116,3.116V86.472A3.045,3.045,0,0,1,27.9,89.588ZM3.116,69.439a1.065,1.065,0,0,0-1.039,1.039V86.472a1.065,1.065,0,0,0,1.039,1.039H27.834a1.065,1.065,0,0,0,1.039-1.039V70.478a1.065,1.065,0,0,0-1.039-1.039Z" transform="translate(0 -67.362)"/>
      </g>
      <path id="Tracé_43" data-name="Tracé 43" class="cls-1" d="M24.475,91.283a.889.889,0,0,1-.692-.277L9.935,78.751a1.029,1.029,0,1,1,1.385-1.523L24.475,88.86,37.631,77.228a1.029,1.029,0,1,1,1.385,1.523L25.168,91.007A1.462,1.462,0,0,1,24.475,91.283Z" transform="translate(-8.966 -76.328)"/>
      <g id="Groupe_51" data-name="Groupe 51" transform="translate(0.206 9.899)">
        <path id="Tracé_44" data-name="Tracé 44" class="cls-1" d="M4.214,231.546a1.112,1.112,0,0,1-.762-.346,1,1,0,0,1,.069-1.454l9.832-9.278a1.029,1.029,0,0,1,1.385,1.523l-9.763,9.278A1.452,1.452,0,0,1,4.214,231.546Z" transform="translate(-3.174 -220.189)"/>
        <path id="Tracé_45" data-name="Tracé 45" class="cls-1" d="M301.991,231.944a.889.889,0,0,1-.692-.277l-9.832-9.278a1.029,1.029,0,1,1,1.385-1.523l9.832,9.278a1.071,1.071,0,0,1,.069,1.454A1.112,1.112,0,0,1,301.991,231.944Z" transform="translate(-272.493 -220.586)"/>
      </g>
    </g>
  </g>
</svg>
